<svg height="512" viewBox="0 0 59 58" width="512" xmlns="http://www.w3.org/2000/svg"><g id="Page-1" fill="none" fill-rule="evenodd"><g id="008---Steak" fill-rule="nonzero"><path id="Shape" d="m57.88 27.54c-.97-12.67-7.82-24.47-18.59-26.91-9.44-2.14-19.36 2.19-27.71 7.85-.13.09-.25.17-.37.26-.09.06-.17.12-.26.19-2.91171371 2.1208098-5.61701483 4.5113853-8.08 7.14-1.71186655 2.0712124-2.7142962 4.6368715-2.86 7.32-.16 4.44 2.48 8.4 5.59 10.74s6.73 3.46 10.11 5.15c3.9000461 1.9090665 7.3236408 4.6663928 10.02 8.07 2.19 2.82 3.93 6.25 6.6 8.39 2.3612713 1.888016 5.4305646 2.6480315 8.4 2.08 1.7791936-.3599374 3.4215454-1.2122972 4.74-2.46 2.37-2.14 6.8-6.31 8.15-8.69 1.0729726-1.5637255 1.9432521-3.2572424 2.59-5.04 1.5446435-4.5262139 2.1137824-9.3281104 1.67-14.09z" fill="#f9eab0"/><path id="Shape" d="m53.89 27.85c-.91-11.87-7.27-21.46-15.48-23.32-1.3756611-.30598374-2.7807202-.46023844-4.19-.46-5.98 0-12.84 2.6-20.4 7.73-.31.2-.62.44-.96.71l-.42.34c-.5420756.49897-1.0467669 1.0370845-1.51 1.61-1.13420087 1.3473128-1.8070676 3.0224706-1.92 4.78-.11 3.06 1.94 5.71 3.88 7.17 1.8338137 1.2454832 3.8030883 2.2787653 5.87 3.08 1.12.49 2.28 1 3.45 1.58 4.3579821 2.1269541 8.1822159 5.2061629 11.19 9.01.78 1 1.48 2.03 2.16 3.03 1.0088885 1.6688061 2.2439449 3.189911 3.67 4.52 1.0862995.869557 2.4385647 1.3391425 3.83 1.33 1.121452-.0086156 2.2249125-.2827672 3.22-.8 1.6367827-.9163192 3.0292513-2.2127554 4.06-3.78.8795657-1.280825 1.5919929-2.6687139 2.12-4.13 1.3414627-3.9872056 1.8286902-8.2121155 1.43-12.4zm-9.11-7.94c-1.08 3.7-5.76 5.16-10.46 3.25s-7.64-6.44-6.57-10.14 5.76-5.16 10.46-3.26 7.64 6.45 6.57 10.15z" fill="#e64c3c"/><path id="Shape" d="m53.62 46.67c-1.35 2.38-5.78 6.55-8.15 8.69-1.3184546 1.2477028-2.9608064 2.1000626-4.74 2.46-2.9694354.5680315-6.0387287-.191984-8.4-2.08-2.67-2.14-4.41-5.57-6.6-8.39-2.6963592-3.4036072-6.1199539-6.1609335-10.02-8.07-3.38-1.69-6.99-2.82-10.11-5.15s-5.75-6.3-5.59-10.74c.1457038-2.6831285 1.14813345-5.2487876 2.86-7.32 2.46298517-2.6286147 5.16828629-5.0191902 8.08-7.14-.21.15-.41.31-.61.47l-.51.42c-.72535675.6520434-1.39749251 1.3609627-2.01 2.12-1.68289011 2.0220153-2.66838512 4.5330987-2.81 7.16-.15 4.35 2.43 8.22 5.49 10.51s6.6 3.38 9.92 5.04c3.8291601 1.8604452 7.1892446 4.5608183 9.83 7.9 2.15 2.75 3.86 6.1 6.48 8.2 3.2665202 2.5601719 7.7410411 2.9373045 11.39.96 2.2141207-1.2102425 4.1014636-2.9397349 5.5-5.04z" fill="#f3d55b"/><path id="Shape" d="m40.99 18.38c-.17.59-2.45 1.5-5.37.32-3.16-1.28-4.21-3.72-4.08-4.15.17-.6 2.45-1.51 5.37-.32 1.4457284.5509141 2.6904705 1.5271824 3.57 2.8.3057366.3863071.4839451.8580354.51 1.35z" fill="#e64c3c"/></g></g></svg>