<svg id="Capa_1" enable-background="new 0 0 512 512" height="512" viewBox="0 0 512 512" width="512" xmlns="http://www.w3.org/2000/svg"><g><path d="m422.504 63.375v322.706h-333.008v-322.706c0-5.69 4.612-10.302 10.302-10.302h312.404c5.69 0 10.302 4.612 10.302 10.302z" fill="#ecc373"/><path d="m397.528 53.073v95.74c0 5.747-4.659 10.406-10.406 10.406h-297.626v24.976 201.886h333.008v-322.706c0-5.69-4.612-10.302-10.302-10.302z" fill="#dab46b"/><path d="m292.423 53.073v64.651c0 4.107-3.931 7.071-7.879 5.943l-25.713-7.347c-1.85-.528-3.811-.528-5.66 0l-25.713 7.347c-3.949 1.128-7.879-1.837-7.879-5.943v-64.651z" fill="#f4e2c1"/><g><path d="m505.756 217.496h-499.512c-3.449 0-6.244-2.796-6.244-6.244v-20.813c0-3.448 2.795-6.244 6.244-6.244h499.512c3.448 0 6.244 2.795 6.244 6.244v20.813c0 3.448-2.796 6.244-6.244 6.244z" fill="#8078bc"/><path d="m505.756 184.195h-24.976c3.448 0 6.244 2.795 6.244 6.244v20.813c0 3.448-2.795 6.244-6.244 6.244h24.976c3.448 0 6.244-2.795 6.244-6.244v-20.813c0-3.448-2.795-6.244-6.244-6.244z" fill="#6b61b1"/><path d="m409.65 458.927h-24.243c-4.552 0-8.575-2.958-9.933-7.302l-8.124-25.998h60.358l-8.124 25.998c-1.359 4.344-5.382 7.302-9.934 7.302z" fill="#ffd064"/><path d="m102.35 458.927h24.243c4.552 0 8.575-2.958 9.933-7.302l8.124-25.998h-60.357l8.124 25.998c1.358 4.344 5.381 7.302 9.933 7.302z" fill="#ffd064"/><path d="m27.057 217.496 34.383 191.001c1.78 9.917 10.407 17.129 20.48 17.129h348.16c10.074 0 18.7-7.212 20.48-17.129l34.383-191.001zm112.39 151.935c0 9.199-7.451 16.65-16.65 16.65s-16.65-7.451-16.65-16.65v-91.577c0-4.6 1.863-8.762 4.87-11.78 3.018-3.007 7.181-4.87 11.78-4.87 9.199 0 16.65 7.451 16.65 16.65zm66.602 0c0 9.199-7.451 16.65-16.65 16.65s-16.65-7.451-16.65-16.65v-91.577c0-4.6 1.863-8.762 4.87-11.78 3.018-3.007 7.181-4.87 11.78-4.87 9.199 0 16.65 7.451 16.65 16.65zm66.601 0c0 9.199-7.451 16.65-16.65 16.65s-16.65-7.451-16.65-16.65v-91.577c0-9.199 7.451-16.65 16.65-16.65 4.6 0 8.762 1.863 11.78 4.87 3.007 3.018 4.87 7.181 4.87 11.78zm66.602 0c0 9.199-7.451 16.65-16.65 16.65s-16.65-7.451-16.65-16.65v-91.577c0-9.199 7.451-16.65 16.65-16.65 4.6 0 8.762 1.863 11.78 4.87 3.007 3.018 4.87 7.181 4.87 11.78zm66.602 0c0 9.199-7.451 16.65-16.65 16.65s-16.65-7.451-16.65-16.65v-91.577c0-9.199 7.451-16.65 16.65-16.65 4.6 0 8.762 1.863 11.78 4.87 3.007 3.018 4.87 7.181 4.87 11.78z" fill="#8078bc"/><path d="m480.447 242.472 4.496-24.976h-457.886l4.496 24.976z" fill="#6b61b1"/><g fill="#ccf49f"><path d="m470.241 382.439-169.82-169.82c-6.502-6.502-6.502-17.045 0-23.547 6.502-6.502 17.045-6.502 23.547 0l169.82 169.82c6.502 6.502 6.502 17.045 0 23.547-6.502 6.502-17.044 6.502-23.547 0z"/><path d="m41.759 382.439 169.82-169.82c6.502-6.502 6.502-17.045 0-23.547-6.502-6.502-17.045-6.502-23.547 0l-169.82 169.82c-6.502 6.502-6.502 17.045 0 23.547 6.502 6.502 17.044 6.502 23.547 0z"/></g></g></g></svg>