<svg height="464pt" viewBox="0 -16 464 464" width="464pt" xmlns="http://www.w3.org/2000/svg"><path d="m200 288.003906c0 30.925782-25.070312 56-56 56s-56-25.074218-56-56c0-30.929687 25.070312-56 56-56s56 25.070313 56 56zm0 0" fill="#e3584b"/><path d="m199.359375 296.003906c3.324219-21.789062-6.441406-43.5-24.949219-55.46875-18.507812-11.96875-42.3125-11.96875-60.820312 0-18.507813 11.96875-28.273438 33.679688-24.949219 55.46875zm0 0" fill="#d45246"/><path d="m312.480469 343.203125-3.945313 3.941406c-6.527344 6.527344-17.109375 6.527344-23.640625 0-6.523437-6.527343-6.523437-17.109375 0-23.636719l3.945313-3.945312-2.054688-6.566406c-7.289062-23.292969-1.046875-48.707032 16.207032-65.96875 17.253906-17.261719 42.664062-23.519532 65.960937-16.242188l6.566406 2.058594 3.945313-3.945312c6.527344-6.527344 17.109375-6.527344 23.640625 0 6.523437 6.527343 6.523437 17.109374 0 23.640624l-3.945313 3.941407 1.503906 4.074219c9.125 24.738281 2.550782 52.53125-16.6875 70.5625-19.238281 18.03125-47.402343 22.789062-71.496093 12.085937zm0 0" fill="#ffc24f"/><path d="m403.480469 296.003906c2.390625-11.847656 1.414062-24.128906-2.816407-35.449218l-1.464843-4.074219 3.945312-3.941407c6.285157-6.570312 6.171875-16.957031-.257812-23.386718-6.425781-6.425782-16.816407-6.539063-23.382813-.253906l-3.945312 3.945312-6.566406-2.058594c-20.359376-6.367187-42.542969-2.4375-59.472657 10.535156-16.933593 12.972657-26.503906 33.367188-25.65625 54.683594zm0 0" fill="#ffa217"/><path d="m171.105469 264.003906c1.613281 4.644532 4.628906 8.675782 8.628906 11.535156 5.066406 3.625 7.515625 9.898438 6.25 16-.289063 1.480469-.433594 2.984376-.433594 4.496094.007813 10.90625 7.371094 20.4375 17.921875 23.199219 3.488282.785156 5.992188 3.84375 6.078125 7.414063-.292969 11.984374 7.984375 22.476562 19.707031 24.984374 4.089844.734376 8.304688.398438 12.230469-.964843 10.390625-3.691407 21.734375-3.691407 32.128907 0 3.925781 1.363281 8.136718 1.699219 12.230468.964843 11.71875-2.507812 19.996094-13 19.703125-24.984374.082031-3.570313 2.585938-6.628907 6.074219-7.414063 12.214844-3.199219 19.863281-15.316406 17.496094-27.71875-1.265625-6.101563 1.183594-12.375 6.246094-16 3.996093-2.855469 7.011718-6.875 8.632812-11.511719zm0 0" fill="#81ad2b"/><path d="m179.734375 275.539062c5.066406 3.625 7.515625 9.898438 6.25 16-.289063 1.480469-.433594 2.984376-.433594 4.496094h144c0-1.511718-.144531-3.015625-.429687-4.496094-1.265625-6.101562 1.183594-12.375 6.246094-16 4-2.859374 7.015624-6.890624 8.632812-11.535156h-172.894531c1.613281 4.644532 4.628906 8.675782 8.628906 11.535156zm0 0" fill="#648c15"/><path d="m127.816406 197.828125-31.816406 18.175781-31.816406-18.175781c-14.957032-8.550781-24.183594-24.457031-24.183594-41.683594v-100.140625c0-30.929687 25.070312-55.99999975 56-55.99999975s56 25.07031275 56 55.99999975v100.140625c0 17.226563-9.226562 33.132813-24.183594 41.683594zm0 0" fill="#81ad2b"/><path d="m129.65625 105.660156-11.3125-11.3125-14.34375 14.34375v-25.378906l25.65625-25.652344-11.3125-11.3125-14.34375 14.34375v-28.6875h-16v28.6875l-14.34375-14.34375-11.3125 11.3125 25.65625 25.652344v25.378906l-14.34375-14.34375-11.3125 11.3125 25.65625 25.652344v25.378906l-14.34375-14.34375-11.3125 11.3125 25.65625 25.652344v60.691406h16v-60.691406l25.65625-25.652344-11.3125-11.3125-14.34375 14.34375v-25.378906zm0 0" fill="#648c15"/><path d="m325.046875 124.480469c-2.953125-5.265625-2.953125-11.691407 0-16.957031 5.878906-10.671876 2.773437-24.058594-7.199219-31.058594-5.066406-3.625-7.515625-9.898438-6.246094-16 2.332032-12.390625-5.320312-24.476563-17.523437-27.664063-3.496094-.78125-6.007813-3.855469-6.078125-7.4375.296875-11.984375-7.980469-22.480469-19.703125-24.984375-4.09375-.730468-8.304687-.3984372-12.234375.96875-10.390625 3.6875-21.734375 3.6875-32.125 0-3.929688-1.3671872-8.140625-1.699218-12.234375-.96875-11.722656 2.503906-20 13-19.703125 24.984375-.082031 3.574219-2.589844 6.632813-6.078125 7.414063-12.214844 3.203125-19.859375 15.320312-17.488281 27.722656 1.265625 6.097656-1.183594 12.371094-6.25 16-9.972656 6.996094-13.078125 20.382812-7.199219 31.054688 2.953125 5.265624 2.953125 11.691406 0 16.960937-5.699219 10.359375-2.945313 23.332031 6.472656 30.488281 4.132813 3.480469 6.527344 8.609375 6.542969 14.015625.0625 1.359375.238281 2.714844.527344 4.046875 1.671875 6.640625 6.015625 12.296875 12 15.625 5.84375 3.644532 13.066406 4.324219 19.488281 1.839844l10.921875 22.34375c12.894531 26.382812 39.695312 43.121094 69.0625 43.128906v-65.472656c6.421875 2.484375 13.644531 1.804688 19.488281-1.839844 5.96875-3.335937 10.296875-8.992187 11.960938-15.625.296875-1.332031.480469-2.6875.550781-4.046875.019531-5.429687 2.4375-10.570312 6.601562-14.050781 9.414063-7.152344 12.167969-20.125 6.46875-30.488281zm0 0" fill="#648c15"/><path d="m248 136.003906c-.007812 7.449219 3.480469 14.472656 9.425781 18.964844 4.152344 3.488281 6.558594 8.625 6.574219 14.050781.0625 1.359375.238281 2.714844.527344 4.046875 1.664062 6.632813 5.988281 12.289063 11.960937 15.625 5.84375 3.644532 13.0625 4.324219 19.488281 1.839844v65.472656c29.375-.003906 56.179688-16.738281 69.078126-43.128906l10.945312-22.34375c6.421875 2.484375 13.644531 1.804688 19.488281-1.839844 5.96875-3.335937 10.296875-8.992187 11.960938-15.625.296875-1.332031.480469-2.6875.550781-4.046875.019531-5.429687 2.4375-10.570312 6.601562-14.050781 9.414063-7.152344 12.167969-20.125 6.46875-30.488281-2.949218-5.265625-2.949218-11.691407 0-16.957031 5.878907-10.671876 2.773438-24.058594-7.199218-31.058594-5.0625-3.625-7.511719-9.898438-6.246094-16 2.332031-12.398438-5.335938-24.484375-17.546875-27.664063-3.496094-.78125-6.007813-3.855469-6.078125-7.4375.296875-11.984375-7.980469-22.480469-19.703125-24.984375-4.09375-.730468-8.304687-.3984372-12.234375.96875-10.390625 3.6875-21.734375 3.6875-32.125 0-3.929688-1.3671872-8.140625-1.699218-12.234375-.96875-11.722656 2.503906-20 13-19.703125 24.984375-.082031 3.574219-2.589844 6.632813-6.078125 7.414063-12.214844 3.203125-19.859375 15.320312-17.488281 27.722656 1.265625 6.097656-1.183594 12.371094-6.25 16-9.972656 6.996094-13.078125 20.382812-7.199219 31.054688 2.953125 5.265624 2.953125 11.691406 0 16.960937-1.949219 3.515625-2.976563 7.46875-2.984375 11.488281zm0 0" fill="#648c15"/><path d="m373.046875 124.480469c-2.953125-5.265625-2.953125-11.691407 0-16.957031 5.878906-10.671876 2.773437-24.058594-7.199219-31.058594-5.066406-3.625-7.515625-9.898438-6.246094-16 2.332032-12.390625-5.320312-24.476563-17.523437-27.664063-3.496094-.78125-6.007813-3.851562-6.078125-7.4375.296875-11.984375-7.980469-22.480469-19.703125-24.984375-4.09375-.730468-8.304687-.3984372-12.234375.96875-10.390625 3.6875-21.734375 3.6875-32.125 0-3.929688-1.3671872-8.140625-1.699218-12.234375-.96875-11.722656 2.503906-20 13-19.703125 24.984375-.078125 3.574219-2.589844 6.636719-6.078125 7.414063-12.214844 3.203125-19.859375 15.320312-17.488281 27.722656 1.265625 6.097656-1.183594 12.371094-6.25 16-9.972656 6.996094-13.078125 20.382812-7.199219 31.054688 2.953125 5.265624 2.953125 11.691406 0 16.960937-5.699219 10.359375-2.945313 23.332031 6.472656 30.488281 4.132813 3.480469 6.527344 8.609375 6.542969 14.015625.0625 1.359375.238281 2.714844.527344 4.046875 1.671875 6.640625 6.015625 12.296875 12 15.625 5.84375 3.644532 13.066406 4.324219 19.488281 1.839844l10.304687 42.160156c3.34375 13.675782 15.597657 23.300782 29.679688 23.3125 14.085938-.003906 26.347656-9.628906 29.695312-23.3125l10.304688-42.160156c6.421875 2.484375 13.644531 1.804688 19.488281-1.839844 5.96875-3.335937 10.296875-8.992187 11.960938-15.625.296875-1.332031.480469-2.683594.550781-4.046875.019531-5.429687 2.4375-10.570312 6.601562-14.050781 9.414063-7.152344 12.167969-20.125 6.46875-30.488281zm0 0" fill="#81ad2b"/><path d="m304 161.347656-11.558594 7.710938v-20.777344l44.429688-29.621094-8.871094-13.3125-35.558594 23.710938v-37.054688l28.796875-21.601562-9.597656-12.800782-19.199219 14.402344v-40h-16v40l-19.203125-14.402344-9.597656 12.800782 28.800781 21.601562v37.054688l-35.570312-23.710938-8.871094 13.3125 44.441406 29.621094v20.777344l-11.570312-7.710938-8.871094 13.3125 20.441406 13.621094v19.722656h16v-19.722656l20.429688-13.621094zm0 0" fill="#648c15"/><path d="m72 144.003906c-12.699219-.527344-23.429688 9.316406-24 22.015625-.570312-12.699219-11.300781-22.542969-24-22.015625-6.726562-.347656-13.257812 2.3125-17.828125 7.257813-4.570313 4.941406-6.710937 11.664062-5.835937 18.339843l10.152343 55.921876c1.917969 8.675781 9.742188 14.757812 18.625 14.480468 9.992188.410156 18.4375-7.335937 18.886719-17.328125.449219 9.992188 8.894531 17.738281 18.886719 17.328125 8.882812.277344 16.707031-5.804687 18.625-14.480468l10.152343-55.921876c.875-6.675781-1.265624-13.398437-5.835937-18.339843-4.570313-4.945313-11.101563-7.605469-17.828125-7.257813zm0 0" fill="#ffa217"/><path d="m56 168.003906h-16v-22.707031c-.015625-18.554687 11.863281-35.035156 29.472656-40.886719l5.054688 15.199219c-11.0625 3.679687-18.53125 14.027344-18.527344 25.6875zm0 0" fill="#648c15"/><path d="m8.632812 215.324219 1.855469 10.199219c1.914063 8.675781 9.742188 14.761718 18.625 14.480468 9.992188.410156 18.4375-7.335937 18.886719-17.328125.449219 9.992188 8.894531 17.738281 18.886719 17.328125 8.882812.277344 16.707031-5.804687 18.625-14.480468l10.152343-55.921876c.699219-4.046874.140626-8.207031-1.601562-11.925781-22.003906 27.398438-51.785156 47.496094-85.429688 57.648438zm0 0" fill="#f99512"/><path d="m344.480469 263.203125-3.945313 3.941406c-6.527344 6.527344-17.109375 6.527344-23.640625 0-6.523437-6.527343-6.523437-17.109375 0-23.636719l3.945313-3.945312-2.054688-6.566406c-7.289062-23.292969-1.046875-48.707032 16.207032-65.96875 17.253906-17.261719 42.664062-23.519532 65.960937-16.242188l6.566406 2.058594 3.945313-3.945312c6.527344-6.527344 17.109375-6.527344 23.640625 0 6.523437 6.527343 6.523437 17.109374 0 23.640624l-3.945313 3.941407 1.503906 4.074219c9.125 24.738281 2.550782 52.53125-16.6875 70.5625-19.238281 18.03125-47.402343 22.789062-71.496093 12.085937zm0 0" fill="#ffc24f"/><path d="m431.199219 176.480469 3.945312-3.941407c4.714844-4.6875 6.191407-11.730468 3.757813-17.917968s-8.3125-10.335938-14.957032-10.554688c.214844 4.644532-1.527343 9.171875-4.800781 12.472656l-3.945312 3.941407 1.503906 4.074219c9.136719 24.746093 2.5625 52.558593-16.691406 70.59375-19.25 18.035156-47.433594 22.785156-71.53125 12.054687l-3.945313 3.941406c-3.300781 3.277344-7.824218 5.019531-12.472656 4.800781.21875 6.644532 4.367188 12.523438 10.554688 14.960938 6.1875 2.433594 13.230468.953125 17.917968-3.761719l3.945313-3.941406c24.09375 10.703125 52.257812 5.945313 71.496093-12.085937 19.238282-18.03125 25.8125-45.824219 16.6875-70.5625zm0 0" fill="#fcb247"/><path d="m208 184.003906c0 30.925782-25.070312 56-56 56s-56-25.074218-56-56c0-30.929687 25.070312-56 56-56s56 25.070313 56 56zm0 0" fill="#e3584b"/><path d="m190.832031 143.707031c4.140625 21.996094-2.847656 44.617188-18.675781 60.445313-15.824219 15.828125-38.445312 22.820312-60.445312 18.683594 14.039062 14.601562 34.871093 20.476562 54.472656 15.359374 19.597656-5.113281 34.902344-20.417968 40.015625-40.019531 5.113281-19.601562-.765625-40.433593-15.367188-54.46875zm0 0" fill="#d45246"/><path d="m178.527344 152.410156-18.527344-6.175781v-42.230469h-16v42.230469l-18.527344 6.175781 5.054688 15.183594 13.472656-4.488281v12.898437h16v-12.898437l13.472656 4.488281zm0 0" fill="#648c15"/><path d="m32 216.003906h64v160h-64zm0 0" fill="#965735"/><path d="m368 216.003906h64v160h-64zm0 0" fill="#965735"/><path d="m0 312.003906h464v64h-464zm0 0" fill="#bf7341"/><path d="m0 216.003906h464v64h-464zm0 0" fill="#bf7341"/><g fill="#965735"><path d="m56 240.003906h16v16h-16zm0 0"/><path d="m392 240.003906h16v16h-16zm0 0"/><path d="m56 336.003906h16v16h-16zm0 0"/><path d="m392 336.003906h16v16h-16zm0 0"/></g><path d="m328 368.003906-56 8v24l56.664062 1.335938zm0 0" fill="#81ad2b"/><path d="m240.472656 432.003906h-184.3125c-9.273437-.371094-16.503906-8.175781-16.160156-17.449218-.175781-7.625 4.660156-14.460938 11.902344-16.839844l178.832031-44.28125c11.597656-2.882813 23.878906-.097656 33.097656 7.503906 9.21875 7.605469 14.289063 19.128906 13.664063 31.066406.792968 21.257813-15.765625 39.148438-37.023438 40zm0 0" fill="#ff7230"/><path d="m269.480469 367.203125c.6875 24.660156-18.589844 45.285156-43.242188 46.261719h-186.160156c0 .363281-.078125.714844-.078125 1.082031-.347656 9.277344 6.882812 17.085937 16.160156 17.457031h184.3125c21.257813-.851562 37.816406-18.742187 37.023438-40 .054687-8.914062-2.757813-17.605468-8.015625-24.800781zm0 0" fill="#fa6823"/><path d="m240 392.003906v-40c-3.136719.042969-6.253906.511719-9.265625 1.398438l-6.734375 1.695312v36.90625zm0 0" fill="#de5718"/><path d="m184 400.003906h16v32h-16zm0 0" fill="#de5718"/><path d="m152 400.003906v-27.074218l-16 3.960937v23.113281zm0 0" fill="#de5718"/><path d="m32 280.003906h64v16h-64zm0 0" fill="#8e4d30"/><path d="m368 280.003906h64v16h-64zm0 0" fill="#8e4d30"/></svg>